<svg width="320" height="78" viewBox="0 0 320 78" fill="none" xmlns="http://www.w3.org/2000/svg">
<path d="M61.196 11.928L54.836 0.959999H56.276L62.012 10.944L61.604 10.968L67.316 0.959999H68.732L62.372 11.928V18H61.196V11.928ZM75.4312 12.24C75.4312 13.232 75.6312 14.088 76.0312 14.808C76.4472 15.528 77.0072 16.088 77.7112 16.488C78.4152 16.872 79.2152 17.064 80.1112 17.064C81.0232 17.064 81.8312 16.872 82.5352 16.488C83.2552 16.088 83.8152 15.528 84.2152 14.808C84.6312 14.088 84.8392 13.232 84.8392 12.24V0.959999H85.9912V12.312C85.9912 13.544 85.7272 14.6 85.1992 15.48C84.6872 16.36 83.9832 17.032 83.0872 17.496C82.2072 17.96 81.2152 18.192 80.1112 18.192C79.0072 18.192 78.0072 17.96 77.1112 17.496C76.2312 17.032 75.5352 16.36 75.0232 15.48C74.5112 14.6 74.2552 13.544 74.2552 12.312V0.959999H75.4312V12.24ZM93.24 0.959999H94.416V18H93.24V0.959999ZM101.769 18V0.576H101.793L110.193 12.504L109.689 12.432L118.065 0.576H118.089V18H116.937V3.288L117.033 3.864L109.929 13.872H109.881L102.729 3.864L102.921 3.336V18H101.769ZM123.951 18L131.151 0.215999H131.247L138.447 18H137.127L130.863 2.088L131.679 1.632L125.127 18H123.951ZM127.431 11.256H134.991L135.327 12.36H127.143L127.431 11.256ZM158.561 18.408L145.121 3.264L145.433 3.024L145.457 18H144.305V0.599999H144.377L157.817 15.864L157.505 15.96L157.481 0.959999H158.609V18.408H158.561ZM183.758 2.88C183.262 2.64 182.654 2.416 181.934 2.208C181.214 2 180.494 1.896 179.774 1.896C178.654 1.896 177.758 2.176 177.086 2.736C176.414 3.296 176.078 4 176.078 4.848C176.078 5.488 176.27 6.024 176.654 6.456C177.038 6.872 177.542 7.232 178.166 7.536C178.79 7.824 179.454 8.104 180.158 8.376C180.718 8.584 181.27 8.816 181.814 9.072C182.374 9.328 182.878 9.64 183.326 10.008C183.774 10.376 184.126 10.832 184.382 11.376C184.654 11.92 184.79 12.592 184.79 13.392C184.79 14.336 184.566 15.176 184.118 15.912C183.67 16.632 183.046 17.192 182.246 17.592C181.446 17.992 180.518 18.192 179.462 18.192C178.614 18.192 177.838 18.088 177.134 17.88C176.446 17.672 175.838 17.432 175.31 17.16C174.798 16.872 174.39 16.632 174.086 16.44L174.638 15.48C174.99 15.736 175.414 15.992 175.91 16.248C176.422 16.504 176.974 16.72 177.566 16.896C178.158 17.072 178.75 17.16 179.342 17.16C180.03 17.16 180.694 17.024 181.334 16.752C181.99 16.48 182.526 16.072 182.942 15.528C183.374 14.968 183.59 14.264 183.59 13.416C183.59 12.6 183.39 11.944 182.99 11.448C182.59 10.936 182.078 10.52 181.454 10.2C180.83 9.88 180.166 9.592 179.462 9.336C178.918 9.128 178.374 8.912 177.83 8.688C177.286 8.448 176.79 8.168 176.342 7.848C175.894 7.512 175.534 7.112 175.262 6.648C175.006 6.184 174.878 5.624 174.878 4.968C174.878 4.152 175.086 3.44 175.502 2.832C175.918 2.224 176.478 1.752 177.182 1.416C177.902 1.064 178.718 0.879999 179.63 0.863999C180.43 0.863999 181.238 0.967999 182.054 1.176C182.886 1.384 183.606 1.648 184.214 1.968L183.758 2.88ZM194.608 18.192C193.632 18.192 192.768 17.976 192.016 17.544C191.264 17.112 190.672 16.528 190.24 15.792C189.824 15.04 189.616 14.2 189.616 13.272C189.616 12.36 189.84 11.528 190.288 10.776C190.736 10.024 191.336 9.424 192.088 8.976C192.856 8.528 193.704 8.304 194.632 8.304C195.752 8.304 196.688 8.632 197.44 9.288C198.208 9.944 198.76 10.8 199.096 11.856L190.888 15.024L190.552 14.208L198.064 11.28L197.824 11.616C197.552 10.976 197.136 10.424 196.576 9.96C196.032 9.496 195.36 9.264 194.56 9.264C193.84 9.264 193.192 9.44 192.616 9.792C192.04 10.144 191.576 10.616 191.224 11.208C190.888 11.8 190.72 12.472 190.72 13.224C190.72 13.928 190.88 14.584 191.2 15.192C191.536 15.8 192 16.288 192.592 16.656C193.184 17.024 193.864 17.208 194.632 17.208C195.144 17.208 195.632 17.112 196.096 16.92C196.576 16.728 197 16.48 197.368 16.176L197.944 16.992C197.496 17.344 196.976 17.632 196.384 17.856C195.808 18.08 195.216 18.192 194.608 18.192ZM205.127 8.616L205.247 11.232L205.079 10.992C205.399 10.176 205.927 9.536 206.663 9.072C207.415 8.592 208.231 8.352 209.111 8.352C209.639 8.352 210.111 8.456 210.527 8.664C210.959 8.856 211.303 9.128 211.559 9.48C211.831 9.816 211.991 10.208 212.039 10.656L211.895 10.8C212.231 10 212.759 9.392 213.479 8.976C214.199 8.56 214.975 8.352 215.807 8.352C216.703 8.352 217.415 8.616 217.943 9.144C218.471 9.656 218.743 10.328 218.759 11.16V18H217.631V11.4C217.615 10.84 217.439 10.368 217.103 9.984C216.767 9.584 216.255 9.368 215.567 9.336C214.943 9.336 214.367 9.496 213.839 9.816C213.311 10.136 212.879 10.56 212.543 11.088C212.223 11.616 212.047 12.208 212.015 12.864V18H210.887V11.4C210.871 10.84 210.687 10.368 210.335 9.984C209.999 9.584 209.487 9.368 208.799 9.336C208.159 9.336 207.567 9.496 207.023 9.816C206.495 10.136 206.071 10.576 205.751 11.136C205.431 11.68 205.271 12.288 205.271 12.96V18H204.143V8.616H205.127ZM224.954 8.616H226.082V18H224.954V8.616ZM224.714 5.16C224.714 4.936 224.802 4.752 224.978 4.608C225.154 4.448 225.346 4.368 225.554 4.368C225.778 4.368 225.97 4.448 226.13 4.608C226.29 4.752 226.37 4.936 226.37 5.16C226.37 5.4 226.29 5.6 226.13 5.76C225.97 5.904 225.778 5.976 225.554 5.976C225.346 5.976 225.154 5.896 224.978 5.736C224.802 5.576 224.714 5.384 224.714 5.16ZM233.248 8.616L233.368 11.568L233.224 10.992C233.496 10.176 234.008 9.536 234.76 9.072C235.528 8.592 236.376 8.352 237.304 8.352C238.184 8.352 238.896 8.616 239.44 9.144C239.984 9.656 240.264 10.328 240.28 11.16V18H239.128V11.472C239.112 10.864 238.92 10.36 238.552 9.96C238.184 9.56 237.648 9.352 236.944 9.336C236.32 9.336 235.736 9.488 235.192 9.792C234.648 10.096 234.208 10.52 233.872 11.064C233.552 11.608 233.392 12.24 233.392 12.96V18H232.264V8.616H233.248ZM250.546 18.192C249.57 18.192 248.706 17.976 247.954 17.544C247.202 17.112 246.61 16.528 246.178 15.792C245.762 15.04 245.554 14.2 245.554 13.272C245.554 12.36 245.778 11.528 246.226 10.776C246.674 10.024 247.274 9.424 248.026 8.976C248.794 8.528 249.642 8.304 250.57 8.304C251.69 8.304 252.626 8.632 253.378 9.288C254.146 9.944 254.698 10.8 255.034 11.856L246.826 15.024L246.49 14.208L254.002 11.28L253.762 11.616C253.49 10.976 253.074 10.424 252.514 9.96C251.97 9.496 251.298 9.264 250.498 9.264C249.778 9.264 249.13 9.44 248.554 9.792C247.978 10.144 247.514 10.616 247.162 11.208C246.826 11.8 246.658 12.472 246.658 13.224C246.658 13.928 246.818 14.584 247.138 15.192C247.474 15.8 247.938 16.288 248.53 16.656C249.122 17.024 249.802 17.208 250.57 17.208C251.082 17.208 251.57 17.112 252.034 16.92C252.514 16.728 252.938 16.48 253.306 16.176L253.882 16.992C253.434 17.344 252.914 17.632 252.322 17.856C251.746 18.08 251.154 18.192 250.546 18.192ZM261.065 8.616L261.185 11.496L261.041 11.136C261.249 10.56 261.577 10.064 262.025 9.648C262.473 9.232 262.969 8.912 263.513 8.688C264.073 8.464 264.609 8.352 265.121 8.352L265.073 9.456C264.353 9.456 263.697 9.616 263.105 9.936C262.529 10.256 262.065 10.688 261.713 11.232C261.377 11.76 261.209 12.36 261.209 13.032V18H260.081V8.616H261.065ZM2.01175 31.488H7.38775L16.7957 57.984L15.9797 57.648L22.8437 39.888L25.0037 46.176L15.8357 67.584L2.01175 31.488ZM18.6677 31.488H23.3237L33.4997 57.6L32.5397 57.408L41.5157 31.488H46.4598L32.8277 67.536L18.6677 31.488ZM53.5195 48.672C53.5195 46.272 53.9675 44.016 54.8635 41.904C55.7915 39.76 57.0715 37.872 58.7035 36.24C60.3355 34.576 62.2075 33.28 64.3195 32.352C66.4635 31.392 68.7675 30.912 71.2315 30.912C73.6635 30.912 75.9355 31.392 78.0475 32.352C80.1915 33.28 82.0795 34.576 83.7115 36.24C85.3755 37.872 86.6715 39.76 87.5995 41.904C88.5275 44.016 88.9915 46.272 88.9915 48.672C88.9915 51.136 88.5275 53.44 87.5995 55.584C86.6715 57.728 85.3755 59.616 83.7115 61.248C82.0795 62.848 80.1915 64.112 78.0475 65.04C75.9355 65.936 73.6635 66.384 71.2315 66.384C68.7675 66.384 66.4635 65.936 64.3195 65.04C62.2075 64.144 60.3355 62.896 58.7035 61.296C57.0715 59.696 55.7915 57.824 54.8635 55.68C53.9675 53.536 53.5195 51.2 53.5195 48.672ZM58.3195 48.72C58.3195 50.544 58.6555 52.256 59.3275 53.856C59.9995 55.424 60.9275 56.816 62.1115 58.032C63.2955 59.248 64.6715 60.208 66.2395 60.912C67.8075 61.584 69.5035 61.92 71.3275 61.92C73.1195 61.92 74.7995 61.584 76.3675 60.912C77.9355 60.208 79.2955 59.248 80.4475 58.032C81.5995 56.816 82.5115 55.424 83.1835 53.856C83.8555 52.256 84.1915 50.528 84.1915 48.672C84.1915 46.848 83.8555 45.136 83.1835 43.536C82.5115 41.904 81.5835 40.48 80.3995 39.264C79.2155 38.048 77.8395 37.104 76.2715 36.432C74.7035 35.728 73.0235 35.376 71.2315 35.376C69.4075 35.376 67.7115 35.728 66.1435 36.432C64.5755 37.136 63.1995 38.096 62.0155 39.312C60.8315 40.528 59.9195 41.952 59.2795 43.584C58.6395 45.184 58.3195 46.896 58.3195 48.72ZM110.852 31.296C112.612 31.296 114.228 31.536 115.7 32.016C117.204 32.464 118.5 33.152 119.588 34.08C120.708 34.976 121.572 36.096 122.18 37.44C122.82 38.752 123.14 40.288 123.14 42.048C123.14 43.424 122.932 44.768 122.516 46.08C122.132 47.392 121.476 48.592 120.548 49.68C119.62 50.736 118.404 51.6 116.9 52.272C115.428 52.912 113.604 53.232 111.428 53.232H106.292V66H101.636V31.296H110.852ZM111.332 48.768C112.708 48.768 113.844 48.56 114.74 48.144C115.668 47.728 116.388 47.2 116.9 46.56C117.412 45.888 117.78 45.168 118.004 44.4C118.228 43.632 118.34 42.912 118.34 42.24C118.34 41.536 118.212 40.816 117.956 40.08C117.732 39.312 117.348 38.608 116.804 37.968C116.292 37.328 115.604 36.8 114.74 36.384C113.908 35.968 112.884 35.76 111.668 35.76H106.292V48.768H111.332ZM117.044 51.408L126.116 66H120.74L111.524 51.552L117.044 51.408ZM142.78 45.264L142.636 46.992L143.26 46.128L157.468 31.296H163.468L149.116 46.176L164.284 66H158.38L145.708 49.152L142.78 51.984V66H138.076V31.296H142.78V45.264ZM193.406 37.488C192.222 36.88 190.926 36.352 189.518 35.904C188.11 35.456 186.734 35.232 185.39 35.232C183.534 35.232 182.046 35.664 180.926 36.528C179.838 37.392 179.294 38.544 179.294 39.984C179.294 41.072 179.646 42 180.35 42.768C181.054 43.504 181.982 44.144 183.134 44.688C184.286 45.232 185.486 45.744 186.734 46.224C187.822 46.64 188.894 47.104 189.95 47.616C191.006 48.128 191.95 48.768 192.782 49.536C193.646 50.304 194.318 51.248 194.798 52.368C195.31 53.488 195.566 54.88 195.566 56.544C195.566 58.368 195.102 60.032 194.174 61.536C193.278 63.04 191.982 64.224 190.286 65.088C188.59 65.952 186.574 66.384 184.238 66.384C182.702 66.384 181.23 66.208 179.822 65.856C178.446 65.504 177.166 65.056 175.982 64.512C174.798 63.936 173.742 63.344 172.814 62.736L174.878 59.088C175.646 59.632 176.526 60.16 177.518 60.672C178.51 61.152 179.55 61.552 180.638 61.872C181.726 62.16 182.782 62.304 183.806 62.304C184.894 62.304 185.966 62.112 187.022 61.728C188.11 61.312 189.006 60.688 189.71 59.856C190.414 59.024 190.766 57.92 190.766 56.544C190.766 55.36 190.446 54.384 189.806 53.616C189.198 52.816 188.382 52.144 187.358 51.6C186.334 51.024 185.246 50.512 184.094 50.064C183.006 49.648 181.902 49.2 180.782 48.72C179.662 48.208 178.622 47.6 177.662 46.896C176.702 46.16 175.934 45.264 175.358 44.208C174.782 43.152 174.494 41.872 174.494 40.368C174.494 38.544 174.926 36.96 175.79 35.616C176.686 34.24 177.902 33.168 179.438 32.4C180.974 31.6 182.734 31.168 184.718 31.104C186.958 31.104 188.926 31.376 190.622 31.92C192.35 32.464 193.87 33.136 195.182 33.936L193.406 37.488ZM235.648 31.296V66H231.04V50.784H212.848V66H208.192V31.296H212.848V46.368H231.04V31.296H235.648ZM248.285 48.672C248.285 46.272 248.733 44.016 249.629 41.904C250.557 39.76 251.837 37.872 253.469 36.24C255.101 34.576 256.973 33.28 259.085 32.352C261.229 31.392 263.533 30.912 265.997 30.912C268.429 30.912 270.701 31.392 272.813 32.352C274.957 33.28 276.845 34.576 278.477 36.24C280.141 37.872 281.437 39.76 282.365 41.904C283.293 44.016 283.757 46.272 283.757 48.672C283.757 51.136 283.293 53.44 282.365 55.584C281.437 57.728 280.141 59.616 278.477 61.248C276.845 62.848 274.957 64.112 272.813 65.04C270.701 65.936 268.429 66.384 265.997 66.384C263.533 66.384 261.229 65.936 259.085 65.04C256.973 64.144 255.101 62.896 253.469 61.296C251.837 59.696 250.557 57.824 249.629 55.68C248.733 53.536 248.285 51.2 248.285 48.672ZM253.085 48.72C253.085 50.544 253.421 52.256 254.093 53.856C254.765 55.424 255.693 56.816 256.877 58.032C258.061 59.248 259.437 60.208 261.005 60.912C262.573 61.584 264.269 61.92 266.093 61.92C267.885 61.92 269.565 61.584 271.133 60.912C272.701 60.208 274.061 59.248 275.213 58.032C276.365 56.816 277.277 55.424 277.949 53.856C278.621 52.256 278.957 50.528 278.957 48.672C278.957 46.848 278.621 45.136 277.949 43.536C277.277 41.904 276.349 40.48 275.165 39.264C273.981 38.048 272.605 37.104 271.037 36.432C269.469 35.728 267.789 35.376 265.997 35.376C264.173 35.376 262.477 35.728 260.909 36.432C259.341 37.136 257.965 38.096 256.781 39.312C255.597 40.528 254.685 41.952 254.045 43.584C253.405 45.184 253.085 46.896 253.085 48.72ZM305.665 31.296C308.193 31.296 310.353 31.728 312.145 32.592C313.937 33.424 315.313 34.64 316.273 36.24C317.265 37.84 317.761 39.776 317.761 42.048C317.761 43.424 317.553 44.784 317.137 46.128C316.721 47.44 316.049 48.64 315.121 49.728C314.225 50.784 313.041 51.632 311.569 52.272C310.097 52.912 308.305 53.232 306.193 53.232H301.057V66H296.401V31.296H305.665ZM306.145 48.768C307.521 48.768 308.657 48.544 309.553 48.096C310.449 47.648 311.153 47.088 311.665 46.416C312.177 45.712 312.545 44.976 312.769 44.208C312.993 43.44 313.105 42.752 313.105 42.144C313.105 41.44 312.993 40.72 312.769 39.984C312.545 39.216 312.161 38.528 311.617 37.92C311.105 37.28 310.417 36.768 309.553 36.384C308.721 35.968 307.681 35.76 306.433 35.76H301.057V48.768H306.145Z" fill="black"/>
</svg>
